grf
version=1
nRows=6
nColumns=37
inDegrees=no
endheader
time	ground_force_1_vx	ground_force_1_vy	ground_force_1_vz	ground_force_1_px	ground_force_1_py	ground_force_1_pz	ground_moment_1_mx	ground_moment_1_my	ground_moment_1_mz	ground_force_2_vx	ground_force_2_vy	ground_force_2_vz	ground_force_2_px	ground_force_2_py	ground_force_2_pz	ground_moment_2_mx	ground_moment_2_my	ground_moment_2_mz	ground_force_3_vx	ground_force_3_vy	ground_force_3_vz	ground_force_3_px	ground_force_3_py	ground_force_3_pz	ground_moment_3_mx	ground_moment_3_my	ground_moment_3_mz	ground_force_4_vx	ground_force_4_vy	ground_force_4_vz	ground_force_4_px	ground_force_4_py	ground_force_4_pz	ground_moment_4_mx	ground_moment_4_my	ground_moment_4_mz
      0.00000000	      0.00000000	     -0.00000000	      0.00000000	      0.00000000	      0.00000000	      0.00000000	      0.00000000	      0.00000000	      0.00000000	      4.59091711	     27.30818176	   -259.34271240	   -300.22855149	   -937.28118005	      0.00000000	      0.00000000	     -0.00000000	    -55.05695973	     -8.47651880	    -25.66733514	   -385.32788086	   -322.43369028	   -749.59138546	      0.00000000	      0.00000000	     -0.00000000	  -2444.01830146	      0.00000000	     -0.00000000	      0.00000000	      0.00000000	      0.00000000	      0.00000000	      0.00000000	      0.00000000	      0.00000000
      0.01000000	      0.00000000	     -0.00000000	      0.00000000	      0.00000000	      0.00000000	      0.00000000	      0.00000000	      0.00000000	      0.00000000	      4.40547705	     27.57542610	   -260.78204346	   -300.50830269	   -939.82057401	      0.00000000	      0.00000000	     -0.00000000	   -157.86139351	     -8.50211161	    -25.74980126	   -385.81256104	   -322.74517239	   -749.29383227	      0.00000000	      0.00000000	     -0.00000000	  -2377.85244347	      0.00000000	     -0.00000000	      0.00000000	      0.00000000	      0.00000000	      0.00000000	      0.00000000	      0.00000000	      0.00000000
      0.02000000	      0.00000000	     -0.00000000	      0.00000000	      0.00000000	      0.00000000	      0.00000000	      0.00000000	      0.00000000	      0.00000000	      4.67296743	     27.60927391	   -260.15893555	   -300.93712551	   -939.90211156	      0.00000000	      0.00000000	      0.00000000	     63.26012137	     -7.87482707	    -25.62693180	   -384.68469238	   -322.99099629	   -749.74203230	      0.00000000	     -0.00000000	     -0.00000000	  -2626.57719849	      0.00000000	     -0.00000000	      0.00000000	      0.00000000	      0.00000000	      0.00000000	      0.00000000	      0.00000000	      0.00000000
      0.03000000	      0.00000000	     -0.00000000	      0.00000000	      0.00000000	      0.00000000	      0.00000000	      0.00000000	      0.00000000	      0.00000000	      4.19289398	     27.67325974	   -260.02532959	   -300.67899510	   -939.34292877	      0.00000000	      0.00000000	     -0.00000000	   -157.79870472	     -7.81394736	    -25.50435604	   -385.51574707	   -322.20076699	   -748.84297172	      0.00000000	      0.00000000	     -0.00000000	  -2491.98805417	      0.00000000	     -0.00000000	      0.00000000	      0.00000000	      0.00000000	      0.00000000	      0.00000000	      0.00000000	      0.00000000
      0.04000000	      0.00000000	     -0.00000000	      0.00000000	      0.00000000	      0.00000000	      0.00000000	      0.00000000	      0.00000000	      0.00000000	      4.79331255	     27.34133339	   -259.67321777	   -300.77162517	   -939.31649793	      0.00000000	      0.00000000	      0.00000000	     45.18435749	     -7.99206797	    -25.39010013	   -384.33334351	   -323.26117475	   -749.26930210	      0.00000000	      0.00000000	     -0.00000000	  -2649.23750318	      0.00000000	     -0.00000000	      0.00000000	      0.00000000	      0.00000000	      0.00000000	      0.00000000	      0.00000000	      0.00000000
      0.05000000	      0.00000000	     -0.00000000	      0.00000000	      0.00000000	      0.00000000	      0.00000000	      0.00000000	      0.00000000	      0.00000000	      4.39447975	     27.44174004	   -258.61941528	   -300.18475819	   -937.58296494	      0.00000000	      0.00000000	     -0.00000000	   -167.06359888	     -7.86154333	    -25.19286312	   -385.28173828	   -323.25647485	   -748.01691791	      0.00000000	      0.00000000	     -0.00000000	  -2496.97202949	      0.00000000	     -0.00000000	      0.00000000	      0.00000000	      0.00000000	      0.00000000	      0.00000000	      0.00000000	      0.00000000
